<svg width="61" height="55" viewBox="0 0 61 55" fill="none" xmlns="http://www.w3.org/2000/svg">
<g filter="url(#filter0_d)">
<path d="M20.7087 8.49579C20.7087 8.49579 20.3627 2.08306 27.8203 0.600576C31.0909 -0.0495788 34.7841 -0.516211 36.7098 1.09709C38.4877 2.58659 41 6.55932 41 8C41 9.44068 39.8096 13.7008 39 16.9851C37.0943 24.7163 20.7087 34.8591 20.7087 34.8591C20.7087 34.8591 3.42376 25.0666 1.1517 16.9851C0.230909 13.71 0 11.8111 0 8.49579C0 4.35563 0.770545 2.85913 4.70753 0.600579C5.99999 -0.140871 9.70166 -0.22417 13.5971 0.600579C21.2509 2.22109 20.7087 8.49579 20.7087 8.49579Z" transform="translate(10 6)" fill="#C45D5D" fill-opacity="0.75"/>
<path d="M20.7087 34.8591L20.6347 34.9896L20.712 35.0335L20.7876 34.9867L20.7087 34.8591ZM20.7087 34.8591C20.7876 34.9867 20.7877 34.9866 20.7878 34.9865L20.7884 34.9862L20.7907 34.9847L20.7998 34.9791L20.8353 34.957C20.8665 34.9374 20.9129 34.9083 20.9733 34.8701C21.0942 34.7937 21.2716 34.6807 21.498 34.5341C21.9507 34.2411 22.5993 33.814 23.3834 33.2773C24.9515 32.2041 27.0627 30.6923 29.234 28.938C31.4047 27.1842 33.6386 25.1857 35.4503 23.139C37.2594 21.0954 38.6604 18.9896 39.1456 17.021C39.3219 16.3059 39.5171 15.5413 39.7142 14.7691C39.9681 13.7745 40.2252 12.7672 40.4494 11.8363C40.649 11.0076 40.8238 10.2347 40.9487 9.57788C41.0731 8.92385 41.15 8.37545 41.15 8C41.15 7.60653 40.9815 7.06367 40.717 6.46267C40.45 5.85607 40.0767 5.17137 39.6488 4.48731C38.7949 3.1221 37.7125 1.74147 36.8061 0.982109C35.8027 0.141503 34.3544 -0.146199 32.7697 -0.149963C31.1813 -0.153735 29.4283 0.127989 27.7911 0.453454C24.0135 1.20439 22.1973 3.21061 21.3323 5.03999C21.0256 5.68846 20.8394 6.31271 20.7266 6.84789C20.6246 6.32746 20.4512 5.7228 20.1591 5.09278C19.3181 3.27858 17.5012 1.27385 13.6281 0.453832C11.6707 0.0394022 9.76069 -0.147231 8.1752 -0.136742C7.38249 -0.131498 6.66859 -0.0769657 6.0691 0.0238777C5.47207 0.124308 4.97833 0.2723 4.63289 0.470468C2.65956 1.60252 1.45333 2.55748 0.747827 3.767C0.041915 4.97723 -0.15 6.42069 -0.15 8.49579C-0.15 11.8238 0.0825388 13.7364 1.0073 17.0257C1.58522 19.0813 3.1116 21.2301 5.05694 23.2903C7.00494 25.3533 9.38587 27.3407 11.6921 29.0726C13.9989 30.8049 16.2341 32.2839 17.8924 33.3296C18.7216 33.8526 19.4068 34.2674 19.8849 34.5515C20.1239 34.6936 20.3112 34.803 20.4388 34.877C20.5026 34.9139 20.5515 34.9421 20.5844 34.961L20.6219 34.9823L20.6314 34.9878L20.6339 34.9892L20.6345 34.9895C20.6346 34.9896 20.6347 34.9896 20.7087 34.8591Z" transform="translate(10 6)" stroke="white" stroke-width="0.3"/>
</g>
<path d="M6.29688 2.21094C6.35417 2.21615 6.40104 2.24219 6.4375 2.28906C6.47396 2.33073 6.48958 2.38542 6.48438 2.45312C6.47917 2.51042 6.45573 2.55729 6.41406 2.59375C6.3724 2.625 6.3151 2.64062 6.24219 2.64062L6.09375 2.625C5.98958 2.61458 5.84375 2.60156 5.65625 2.58594C5.46875 2.57031 5.24219 2.55729 4.97656 2.54688C4.71615 2.53646 4.42448 2.53125 4.10156 2.53125C4.0599 2.53125 4.02083 2.53125 3.98438 2.53125C3.94792 2.53125 3.90885 2.53385 3.86719 2.53906C3.88802 2.71094 3.90885 2.91146 3.92969 3.14062C3.95573 3.36458 3.97656 3.59115 3.99219 3.82031C4.00781 4.04948 4.02083 4.26823 4.03125 4.47656C4.04167 4.67969 4.04688 4.84635 4.04688 4.97656C4.04688 5.07552 4.05208 5.21615 4.0625 5.39844C4.07812 5.58073 4.09375 5.78125 4.10938 6C4.13021 6.21354 4.15104 6.4349 4.17188 6.66406C4.19271 6.88802 4.21354 7.09375 4.23438 7.28125C4.25521 7.46354 4.27083 7.61719 4.28125 7.74219C4.29688 7.86198 4.30469 7.92448 4.30469 7.92969C4.30469 7.98698 4.28385 8.03385 4.24219 8.07031C4.20573 8.11198 4.15365 8.13802 4.08594 8.14844C4.02865 8.14844 3.97917 8.13021 3.9375 8.09375C3.89583 8.05729 3.8724 8.01042 3.86719 7.95312C3.86719 7.9375 3.85938 7.86719 3.84375 7.74219C3.82812 7.61719 3.8099 7.46354 3.78906 7.28125C3.77344 7.09375 3.75521 6.88802 3.73438 6.66406C3.71354 6.4401 3.69271 6.22135 3.67188 6.00781C3.65625 5.78906 3.64062 5.58854 3.625 5.40625C3.61458 5.22396 3.60938 5.08073 3.60938 4.97656C3.60938 4.83594 3.60417 4.65885 3.59375 4.44531C3.58333 4.23177 3.56771 4.01042 3.54688 3.78125C3.53125 3.55208 3.51302 3.32812 3.49219 3.10938C3.47135 2.89062 3.45052 2.70312 3.42969 2.54688C3.14844 2.55729 2.8724 2.57031 2.60156 2.58594C2.33073 2.59635 2.09115 2.60938 1.88281 2.625C1.66927 2.64062 1.4974 2.65365 1.36719 2.66406C1.23177 2.67448 1.16146 2.67969 1.15625 2.67969C1.09896 2.6849 1.04948 2.66667 1.00781 2.625C0.966146 2.58333 0.942708 2.52865 0.9375 2.46094C0.9375 2.40365 0.955729 2.35417 0.992188 2.3125C1.02865 2.27083 1.07552 2.2474 1.13281 2.24219C1.13802 2.24219 1.21094 2.23698 1.35156 2.22656C1.49219 2.21615 1.67708 2.20312 1.90625 2.1875C2.13542 2.17188 2.39323 2.15625 2.67969 2.14062C2.97135 2.125 3.26562 2.11198 3.5625 2.10156C3.57292 2.10156 3.58333 2.10156 3.59375 2.10156C3.60417 2.09635 3.625 2.09635 3.65625 2.10156C3.72917 2.10156 3.80208 2.10156 3.875 2.10156C3.95312 2.09635 4.02865 2.09375 4.10156 2.09375C4.4349 2.09375 4.73438 2.09896 5 2.10938C5.26562 2.11979 5.49219 2.13281 5.67969 2.14844C5.8724 2.16406 6.02083 2.17969 6.125 2.19531C6.22917 2.20573 6.28646 2.21094 6.29688 2.21094ZM7.57031 7.70312C7.67969 7.70312 7.79948 7.65365 7.92969 7.55469C8.0599 7.45052 8.1849 7.3125 8.30469 7.14062C8.42969 6.96875 8.54167 6.76823 8.64062 6.53906C8.73958 6.30469 8.8125 6.05729 8.85938 5.79688C8.82292 5.54688 8.79427 5.28385 8.77344 5.00781C8.7526 4.73177 8.73958 4.4375 8.73438 4.125C8.67708 4.07812 8.64844 4.02083 8.64844 3.95312C8.61198 3.9375 8.57292 3.92448 8.53125 3.91406C8.49479 3.90365 8.45312 3.89844 8.40625 3.89844C8.33854 3.89844 8.24219 3.91406 8.11719 3.94531C7.99219 3.97135 7.85677 4.01823 7.71094 4.08594C7.5651 4.14844 7.41667 4.23177 7.26562 4.33594C7.11979 4.4401 6.98438 4.56771 6.85938 4.71875C6.73958 4.86979 6.64062 5.04427 6.5625 5.24219C6.48438 5.4401 6.44531 5.66406 6.44531 5.91406C6.44531 6.3099 6.47656 6.625 6.53906 6.85938C6.60677 7.09375 6.69271 7.27344 6.79688 7.39844C6.90625 7.52344 7.02604 7.60677 7.15625 7.64844C7.29167 7.6849 7.42969 7.70312 7.57031 7.70312ZM9.30469 5.79688C9.35156 6.11979 9.40625 6.40885 9.46875 6.66406C9.53125 6.91927 9.58854 7.13542 9.64062 7.3125C9.69792 7.48958 9.74479 7.6276 9.78125 7.72656C9.82292 7.82031 9.84375 7.86979 9.84375 7.875C9.84896 7.89062 9.85156 7.90625 9.85156 7.92188C9.85677 7.93229 9.85938 7.94531 9.85938 7.96094C9.85938 8.05469 9.81771 8.1224 9.73438 8.16406C9.69271 8.17448 9.66146 8.17969 9.64062 8.17969C9.54167 8.17969 9.47656 8.13802 9.44531 8.05469C9.4349 8.03385 9.38542 7.91146 9.29688 7.6875C9.21354 7.45833 9.125 7.14062 9.03125 6.73438C8.94792 6.9375 8.84896 7.125 8.73438 7.29688C8.625 7.46875 8.50521 7.61719 8.375 7.74219C8.25 7.86719 8.11719 7.96354 7.97656 8.03125C7.84115 8.10417 7.70573 8.14062 7.57031 8.14062C7.03906 8.14062 6.64583 7.95833 6.39062 7.59375C6.13542 7.22917 6.00781 6.66927 6.00781 5.91406C6.00781 5.60156 6.05469 5.32552 6.14844 5.08594C6.24219 4.84115 6.36198 4.6276 6.50781 4.44531C6.65885 4.26302 6.82552 4.10938 7.00781 3.98438C7.19531 3.85938 7.3776 3.75781 7.55469 3.67969C7.73177 3.60156 7.89583 3.54688 8.04688 3.51562C8.19792 3.47917 8.31771 3.46094 8.40625 3.46094C8.5625 3.46094 8.69792 3.49219 8.8125 3.55469C8.92708 3.61198 9.02083 3.67969 9.09375 3.75781C9.17188 3.83073 9.22917 3.90104 9.26562 3.96875C9.30208 4.03125 9.32031 4.0651 9.32031 4.07031C9.33594 4.09635 9.34375 4.125 9.34375 4.15625C9.34375 4.20833 9.32031 4.26302 9.27344 4.32031C9.32031 4.5651 9.34375 4.88802 9.34375 5.28906C9.34375 5.3724 9.33854 5.45573 9.32812 5.53906C9.32292 5.6224 9.3151 5.70833 9.30469 5.79688ZM13.375 6.21094C13.401 6.14323 13.4167 6.07552 13.4219 6.00781C13.4323 5.9401 13.4375 5.8724 13.4375 5.80469C13.4375 5.63802 13.4089 5.47656 13.3516 5.32031C13.2995 5.16406 13.2292 5.02083 13.1406 4.89062C13.0521 4.75521 12.9531 4.63542 12.8438 4.53125C12.7344 4.42188 12.625 4.33333 12.5156 4.26562C12.3854 4.19271 12.2292 4.15625 12.0469 4.15625C11.8854 4.15625 11.7161 4.1875 11.5391 4.25C11.362 4.3125 11.2031 4.41146 11.0625 4.54688C11.0104 4.58854 10.9609 4.60938 10.9141 4.60938C10.8828 4.60938 10.8516 4.60156 10.8203 4.58594C10.8464 4.7474 10.875 4.9349 10.9062 5.14844C10.9375 5.35677 10.9688 5.57812 11 5.8125C11.0312 6.04688 11.0625 6.28646 11.0938 6.53125C11.125 6.77604 11.151 7.01042 11.1719 7.23438C11.2448 7.26562 11.2891 7.32552 11.3047 7.41406C11.3047 7.41927 11.3099 7.4375 11.3203 7.46875C11.3359 7.5 11.3698 7.53125 11.4219 7.5625C11.5052 7.60938 11.5964 7.63281 11.6953 7.63281C11.7578 7.63281 11.8177 7.625 11.875 7.60938C11.9375 7.59375 11.9948 7.57812 12.0469 7.5625C12.1875 7.51042 12.3255 7.4375 12.4609 7.34375C12.6016 7.24479 12.7318 7.13542 12.8516 7.01562C12.9714 6.89062 13.0755 6.76042 13.1641 6.625C13.2578 6.48438 13.3281 6.34635 13.375 6.21094ZM12.7422 3.89844C12.8932 3.99219 13.0365 4.10677 13.1719 4.24219C13.3125 4.3776 13.4349 4.52865 13.5391 4.69531C13.6432 4.86198 13.724 5.03906 13.7812 5.22656C13.8438 5.41406 13.875 5.60677 13.875 5.80469C13.875 5.9974 13.8464 6.17708 13.7891 6.34375C13.7318 6.51042 13.6484 6.67708 13.5391 6.84375C13.4349 7.01042 13.3125 7.16667 13.1719 7.3125C13.0312 7.45833 12.875 7.58854 12.7031 7.70312C12.5365 7.81771 12.3672 7.90625 12.1953 7.96875C12.0234 8.03646 11.8568 8.07031 11.6953 8.07031C11.5286 8.07031 11.3698 8.02865 11.2188 7.94531V8.13281C11.2188 8.41927 11.2266 8.72396 11.2422 9.04688C11.263 9.36979 11.2839 9.66927 11.3047 9.94531C11.3255 10.2214 11.3438 10.4505 11.3594 10.6328C11.3802 10.8203 11.3906 10.9193 11.3906 10.9297C11.3906 10.987 11.3724 11.0365 11.3359 11.0781C11.2995 11.1198 11.2448 11.1432 11.1719 11.1484C11.1146 11.1484 11.0651 11.1302 11.0234 11.0938C10.987 11.0573 10.9635 11.0104 10.9531 10.9531C10.9531 10.9479 10.9427 10.8516 10.9219 10.6641C10.9062 10.4818 10.888 10.25 10.8672 9.96875C10.8464 9.69271 10.8255 9.39062 10.8047 9.0625C10.7891 8.73438 10.7812 8.42448 10.7812 8.13281C10.7812 7.94531 10.7682 7.71615 10.7422 7.44531C10.7214 7.17448 10.6927 6.89323 10.6562 6.60156C10.625 6.30469 10.5885 6.01042 10.5469 5.71875C10.5052 5.42708 10.4661 5.16406 10.4297 4.92969C10.3932 4.69531 10.362 4.50521 10.3359 4.35938C10.3151 4.20833 10.3047 4.1276 10.3047 4.11719C10.3047 3.9974 10.3776 3.92448 10.5234 3.89844C10.5807 3.89844 10.6276 3.91406 10.6641 3.94531C10.7057 3.97656 10.7318 4.02083 10.7422 4.07812L10.7656 4.22656C10.9531 4.04948 11.1589 3.92188 11.3828 3.84375C11.6068 3.76042 11.8255 3.71875 12.0391 3.71875C12.3151 3.71875 12.5495 3.77865 12.7422 3.89844ZM23.1172 4.89844C23.1172 4.9974 23.1224 5.13802 23.1328 5.32031C23.1484 5.5026 23.1641 5.70312 23.1797 5.92188C23.2005 6.13542 23.2214 6.35677 23.2422 6.58594C23.263 6.8099 23.2812 7.01562 23.2969 7.20312C23.3177 7.38542 23.3333 7.53906 23.3438 7.66406C23.3594 7.78385 23.3672 7.84635 23.3672 7.85156C23.3672 7.90885 23.349 7.95833 23.3125 8C23.276 8.04167 23.2214 8.0651 23.1484 8.07031C23.0911 8.07031 23.0417 8.05208 23 8.01562C22.9635 7.97917 22.9401 7.93229 22.9297 7.875C22.9297 7.85938 22.9219 7.78906 22.9062 7.66406C22.8958 7.53906 22.8802 7.38542 22.8594 7.20312C22.8438 7.01562 22.8255 6.8099 22.8047 6.58594C22.7839 6.36198 22.763 6.14323 22.7422 5.92969C22.7266 5.71094 22.7109 5.51042 22.6953 5.32812C22.6849 5.14583 22.6797 5.0026 22.6797 4.89844C22.6797 4.78906 22.6771 4.65625 22.6719 4.5C22.6667 4.34375 22.6562 4.17708 22.6406 4C22.6302 3.82292 22.6172 3.64323 22.6016 3.46094C22.5859 3.27865 22.5703 3.10677 22.5547 2.94531C22.4297 3.15885 22.2917 3.375 22.1406 3.59375C21.9896 3.80729 21.8542 4 21.7344 4.17188C21.6823 4.24479 21.612 4.35417 21.5234 4.5C21.4349 4.64583 21.3385 4.80729 21.2344 4.98438C21.1354 5.16146 21.0339 5.34375 20.9297 5.53125C20.8307 5.71354 20.737 5.88021 20.6484 6.03125C20.5651 6.18229 20.4948 6.30729 20.4375 6.40625C20.3854 6.50521 20.3594 6.55729 20.3594 6.5625C20.3177 6.63542 20.2552 6.67188 20.1719 6.67188C20.1354 6.67188 20.099 6.66406 20.0625 6.64844C19.9896 6.60677 19.9531 6.54167 19.9531 6.45312C19.9531 6.41667 19.9609 6.38281 19.9766 6.35156L20.0938 6.08594C20.0833 6.07552 20.0417 6.02604 19.9688 5.9375C19.8958 5.84375 19.8047 5.72917 19.6953 5.59375C19.5859 5.45312 19.4635 5.29948 19.3281 5.13281C19.1979 4.96615 19.0703 4.80208 18.9453 4.64062C18.8255 4.47917 18.7135 4.33073 18.6094 4.19531C18.5104 4.05469 18.4349 3.94271 18.3828 3.85938C18.2943 3.71354 18.1927 3.55208 18.0781 3.375C17.9688 3.19792 17.8542 3.02604 17.7344 2.85938C17.7552 3.03125 17.7734 3.21615 17.7891 3.41406C17.8047 3.60677 17.8177 3.79688 17.8281 3.98438C17.8385 4.16667 17.8464 4.33854 17.8516 4.5C17.862 4.65625 17.8672 4.78906 17.8672 4.89844C17.8672 4.9974 17.8724 5.13802 17.8828 5.32031C17.8984 5.5026 17.9141 5.70312 17.9297 5.92188C17.9505 6.13542 17.9714 6.35677 17.9922 6.58594C18.013 6.8099 18.0339 7.01562 18.0547 7.20312C18.0755 7.38542 18.0911 7.53906 18.1016 7.66406C18.1172 7.78385 18.125 7.84635 18.125 7.85156C18.125 7.90885 18.1042 7.95833 18.0625 8C18.026 8.04167 17.974 8.0651 17.9062 8.07031C17.849 8.07031 17.7995 8.05208 17.7578 8.01562C17.7214 7.97917 17.6979 7.93229 17.6875 7.875C17.6875 7.85938 17.6797 7.78906 17.6641 7.66406C17.6536 7.53906 17.638 7.38542 17.6172 7.20312C17.5964 7.01562 17.5755 6.8099 17.5547 6.58594C17.5339 6.36198 17.513 6.14323 17.4922 5.92969C17.4766 5.71094 17.4609 5.51042 17.4453 5.32812C17.4349 5.14583 17.4297 5.0026 17.4297 4.89844C17.4297 4.74219 17.4219 4.54167 17.4062 4.29688C17.3958 4.05208 17.3802 3.80208 17.3594 3.54688C17.3385 3.28646 17.3151 3.03906 17.2891 2.80469C17.263 2.57031 17.237 2.38281 17.2109 2.24219C17.2109 2.23177 17.2109 2.22135 17.2109 2.21094C17.2161 2.19531 17.2161 2.16927 17.2109 2.13281C17.2109 2.07031 17.2318 2.01823 17.2734 1.97656C17.3255 1.9349 17.3776 1.91406 17.4297 1.91406C17.4922 1.91406 17.5443 1.9349 17.5859 1.97656C17.6849 2.07552 17.7865 2.19531 17.8906 2.33594C17.9948 2.47135 18.0964 2.61458 18.1953 2.76562C18.2995 2.91146 18.3984 3.0599 18.4922 3.21094C18.5911 3.36198 18.6797 3.5 18.7578 3.625C18.8203 3.72396 18.9219 3.86979 19.0625 4.0625C19.2031 4.25 19.3542 4.44792 19.5156 4.65625C19.6771 4.86458 19.8333 5.0651 19.9844 5.25781C20.1406 5.44531 20.2578 5.58854 20.3359 5.6875C20.4193 5.53125 20.5104 5.36719 20.6094 5.19531C20.7135 5.01823 20.8125 4.84896 20.9062 4.6875C21 4.52083 21.0885 4.36979 21.1719 4.23438C21.2552 4.09375 21.3229 3.98698 21.375 3.91406C21.4583 3.79948 21.5495 3.67188 21.6484 3.53125C21.7474 3.39062 21.8438 3.25 21.9375 3.10938C22.0312 2.96354 22.1198 2.82031 22.2031 2.67969C22.2865 2.53906 22.3516 2.40885 22.3984 2.28906C22.4089 2.26302 22.4297 2.23438 22.4609 2.20312C22.4766 2.10417 22.5495 2.04427 22.6797 2.02344C22.7943 2.02344 22.8646 2.08073 22.8906 2.19531C22.9219 2.34115 22.9505 2.53646 22.9766 2.78125C23.0026 3.02083 23.026 3.27344 23.0469 3.53906C23.0677 3.80469 23.0833 4.0625 23.0938 4.3125C23.1094 4.55729 23.1172 4.7526 23.1172 4.89844ZM26.1016 4.0625C26.0547 4.0625 25.9609 4.08854 25.8203 4.14062C25.6849 4.1875 25.5417 4.27604 25.3906 4.40625C25.2448 4.53125 25.1068 4.70833 24.9766 4.9375C24.8516 5.16146 24.7734 5.45052 24.7422 5.80469C24.8307 5.78385 24.9297 5.76042 25.0391 5.73438C25.1536 5.70833 25.2656 5.6849 25.375 5.66406C25.4896 5.63802 25.5964 5.61719 25.6953 5.60156C25.7995 5.58594 25.8828 5.57812 25.9453 5.57812C26.0182 5.57812 26.1094 5.5625 26.2188 5.53125C26.3333 5.49479 26.4453 5.45833 26.5547 5.42188C26.6432 5.39062 26.7266 5.36458 26.8047 5.34375C26.8828 5.31771 26.9583 5.29427 27.0312 5.27344C27.0104 5.0651 26.9661 4.88542 26.8984 4.73438C26.8307 4.58333 26.7526 4.45833 26.6641 4.35938C26.5755 4.26042 26.4818 4.1875 26.3828 4.14062C26.2839 4.08854 26.1901 4.0625 26.1016 4.0625ZM27.5781 7.64062C27.6354 7.64062 27.6823 7.65885 27.7188 7.69531C27.7604 7.73177 27.7865 7.78646 27.7969 7.85938C27.7969 7.91667 27.7786 7.96354 27.7422 8C27.7109 8.04167 27.6667 8.06771 27.6094 8.07812C27.599 8.07812 27.5521 8.08333 27.4688 8.09375C27.3854 8.10938 27.2865 8.125 27.1719 8.14062C27.0573 8.15625 26.9375 8.16927 26.8125 8.17969C26.6875 8.1901 26.5807 8.19531 26.4922 8.19531C25.7995 8.19531 25.2682 8.01302 24.8984 7.64844C24.5286 7.27865 24.3255 6.76042 24.2891 6.09375C24.2786 5.75521 24.3073 5.45833 24.375 5.20312C24.4479 4.94792 24.5417 4.72917 24.6562 4.54688C24.776 4.36458 24.9089 4.21354 25.0547 4.09375C25.2005 3.97396 25.3411 3.88021 25.4766 3.8125C25.6172 3.74479 25.7422 3.69792 25.8516 3.67188C25.9661 3.64062 26.0495 3.625 26.1016 3.625C26.237 3.625 26.3802 3.65885 26.5312 3.72656C26.6875 3.79427 26.8307 3.89844 26.9609 4.03906C27.0964 4.17448 27.2109 4.34896 27.3047 4.5625C27.3984 4.77604 27.4557 5.02865 27.4766 5.32031C27.5078 5.36198 27.5234 5.40885 27.5234 5.46094C27.5234 5.51302 27.5078 5.55729 27.4766 5.59375C27.4505 5.69792 27.3802 5.75 27.2656 5.75C27.2135 5.75 27.1693 5.73438 27.1328 5.70312C26.9922 5.73438 26.8464 5.77865 26.6953 5.83594C26.5599 5.88281 26.4271 5.92448 26.2969 5.96094C26.1667 5.9974 26.0495 6.01562 25.9453 6.01562C25.888 6.01562 25.8099 6.02344 25.7109 6.03906C25.6172 6.05469 25.513 6.07552 25.3984 6.10156C25.2839 6.1276 25.1667 6.15625 25.0469 6.1875C24.9323 6.21354 24.8281 6.23958 24.7344 6.26562C24.7552 6.58854 24.8281 6.84896 24.9531 7.04688C25.0833 7.23958 25.2344 7.39062 25.4062 7.5C25.5833 7.60417 25.7682 7.67448 25.9609 7.71094C26.1589 7.74219 26.3359 7.75781 26.4922 7.75781C26.5755 7.75781 26.6771 7.7526 26.7969 7.74219C26.9167 7.73177 27.0312 7.71875 27.1406 7.70312C27.25 7.6875 27.3464 7.67448 27.4297 7.66406L27.5469 7.64844L27.5781 7.64062ZM29.1562 7.4375C29.2448 7.4375 29.3177 7.46875 29.375 7.53125C29.4375 7.58854 29.4688 7.66146 29.4688 7.75C29.4688 7.83333 29.4375 7.90625 29.375 7.96875C29.3177 8.02604 29.2448 8.05469 29.1562 8.05469C29.0677 8.05469 28.9948 8.02604 28.9375 7.96875C28.8802 7.90625 28.8516 7.83333 28.8516 7.75C28.8516 7.66146 28.8802 7.58854 28.9375 7.53125C28.9948 7.46875 29.0677 7.4375 29.1562 7.4375ZM29.0469 7.22656C28.9896 7.23177 28.9401 7.21615 28.8984 7.17969C28.8568 7.13802 28.8333 7.08854 28.8281 7.03125C28.8177 6.95312 28.8073 6.875 28.7969 6.79688C28.7917 6.71354 28.7839 6.63021 28.7734 6.54688C28.7422 6.25 28.7135 5.97135 28.6875 5.71094C28.6667 5.44531 28.6562 5.23438 28.6562 5.07812C28.6562 4.91667 28.6484 4.71354 28.6328 4.46875C28.6224 4.22396 28.6068 3.97396 28.5859 3.71875C28.5651 3.45833 28.5417 3.21094 28.5156 2.97656C28.4896 2.74219 28.4635 2.55469 28.4375 2.41406C28.4375 2.36198 28.4557 2.3151 28.4922 2.27344C28.5286 2.23177 28.5833 2.20573 28.6562 2.19531C28.7708 2.19531 28.8411 2.25521 28.8672 2.375C28.8984 2.51562 28.9271 2.70833 28.9531 2.95312C28.9792 3.19792 29.0026 3.45312 29.0234 3.71875C29.0443 3.97917 29.0599 4.23438 29.0703 4.48438C29.0859 4.72917 29.0938 4.92708 29.0938 5.07812C29.0938 5.22396 29.1042 5.42708 29.125 5.6875C29.151 5.94792 29.1797 6.21875 29.2109 6.5C29.2214 6.58333 29.2292 6.66667 29.2344 6.75C29.2448 6.83333 29.2552 6.91927 29.2656 7.00781C29.2656 7.0651 29.2448 7.11719 29.2031 7.16406C29.1667 7.20573 29.1146 7.22656 29.0469 7.22656Z" transform="translate(14 15)" fill="white"/>
<path d="M1.97656 9.02344H30.0234V9.42188H1.97656V9.02344Z" transform="translate(14 15)" fill="white"/>
<defs>
<filter id="filter0_d" x="0.700012" y="0.700012" width="59.6" height="53.5078" filterUnits="userSpaceOnUse" color-interpolation-filters="sRGB">
<feFlood flood-opacity="0" result="BackgroundImageFix"/>
<feColorMatrix in="SourceAlpha" type="matrix" values="0 0 0 0 0 0 0 0 0 0 0 0 0 0 0 0 0 0 255 0"/>
<feOffset dy="4"/>
<feGaussianBlur stdDeviation="4.5"/>
<feColorMatrix type="matrix" values="0 0 0 0 0.30786 0 0 0 0 0.14118 0 0 0 0 0.14118 0 0 0 1 0"/>
<feBlend mode="normal" in2="BackgroundImageFix" result="effect1_dropShadow"/>
<feBlend mode="normal" in="SourceGraphic" in2="effect1_dropShadow" result="shape"/>
</filter>
</defs>
</svg>
